<svg width="1em" height="1em" viewBox="0 0 24 24" fill="none" xmlns="http://www.w3.org/2000/svg">
<path fill-rule="evenodd" clip-rule="evenodd" d="M21.5 3.5V17C21.5 18.1046 20.6046 19 19.5 19H17.5V21C17.5 22.1046 16.5406 23 15.3571 23H4.64286C3.45939 23 2.5 22.1046 2.5 21V7.5C2.5 6.39543 3.45939 5.5 4.64286 5.5H6.5V3.5C6.5 2.39543 7.39543 1.5 8.5 1.5H19.5C20.6046 1.5 21.5 2.39543 21.5 3.5ZM8.5 5.5H15.3571C16.5406 5.5 17.5 6.39543 17.5 7.5V17H19.5V3.5H8.5V5.5ZM15.3571 7.5H4.64286L4.64286 21H15.3571V7.5Z" fill="currentColor"/>
</svg>
