<svg width="1em" height="1em" viewBox="0 0 24 24" fill="none" xmlns="http://www.w3.org/2000/svg">
<path d="M12 0.5C12.5523 0.5 13 0.947715 13 1.5V2.5C13 3.05228 12.5523 3.5 12 3.5C11.4477 3.5 11 3.05228 11 2.5V1.5C11 0.947715 11.4477 0.5 12 0.5Z" fill="currentColor"/>
<path fill-rule="evenodd" clip-rule="evenodd" d="M12 19C15.866 19 19 15.866 19 12C19 8.13401 15.866 5 12 5C8.13401 5 5 8.13401 5 12C5 15.866 8.13401 19 12 19ZM12 17C14.7614 17 17 14.7614 17 12C17 9.23858 14.7614 7 12 7C9.23858 7 7 9.23858 7 12C7 14.7614 9.23858 17 12 17Z" fill="currentColor"/>
<path d="M13 21.5C13 20.9477 12.5523 20.5 12 20.5C11.4477 20.5 11 20.9477 11 21.5V22.5C11 23.0523 11.4477 23.5 12 23.5C12.5523 23.5 13 23.0523 13 22.5V21.5Z" fill="currentColor"/>
<path d="M23.5 12C23.5 12.5523 23.0523 13 22.5 13H21.5C20.9477 13 20.5 12.5523 20.5 12C20.5 11.4477 20.9477 11 21.5 11H22.5C23.0523 11 23.5 11.4477 23.5 12Z" fill="currentColor"/>
<path d="M2.5 13C3.05228 13 3.5 12.5523 3.5 12C3.5 11.4477 3.05228 11 2.5 11H1.5C0.947715 11 0.5 11.4477 0.5 12C0.5 12.5523 0.947715 13 1.5 13H2.5Z" fill="currentColor"/>
<path d="M20.1317 5.2823L19.4246 5.98941C19.034 6.37993 18.4009 6.37993 18.0103 5.98941C17.6198 5.59888 17.6198 4.96572 18.0103 4.5752L18.7175 3.86809C19.108 3.47756 19.7411 3.47756 20.1317 3.86809C20.5222 4.25861 20.5222 4.89178 20.1317 5.2823Z" fill="currentColor"/>
<path d="M5.28247 20.1315L5.98958 19.4244C6.3801 19.0339 6.3801 18.4007 5.98958 18.0102C5.59905 17.6197 4.96589 17.6197 4.57536 18.0102L3.86826 18.7173C3.47773 19.1078 3.47773 19.741 3.86826 20.1315C4.25878 20.522 4.89195 20.522 5.28247 20.1315Z" fill="currentColor"/>
<path d="M18.7175 20.1319L18.0103 19.4248C17.6198 19.0343 17.6198 18.4011 18.0103 18.0106C18.4009 17.6201 19.034 17.6201 19.4246 18.0106L20.1317 18.7177C20.5222 19.1082 20.5222 19.7414 20.1317 20.1319C19.7411 20.5224 19.108 20.5224 18.7175 20.1319Z" fill="currentColor"/>
<path d="M4.57536 5.98982C4.96589 6.38035 5.59905 6.38035 5.98958 5.98982C6.3801 5.5993 6.3801 4.96613 5.98958 4.57561L5.28247 3.8685C4.89195 3.47798 4.25878 3.47798 3.86826 3.8685C3.47773 4.25903 3.47773 4.89219 3.86826 5.28271L4.57536 5.98982Z" fill="currentColor"/>
</svg>
