<svg width="1em" height="1em" viewBox="0 0 24 24" fill="none" xmlns="http://www.w3.org/2000/svg">
<path fill-rule="evenodd" clip-rule="evenodd" d="M4.7969 16.8557C5.23708 17.3656 5.74024 17.8228 6.29719 18.2151C7.69346 19.1987 9.35961 19.7267 11.0675 19.7268H11.0753V19.7269C13.2466 19.7355 15.3343 18.8908 16.8887 17.3748C18.4431 15.8588 19.3398 13.7929 19.3855 11.6221C19.4312 9.45132 18.6224 7.34946 17.1331 5.76937C16.3474 4.93569 15.4054 4.28244 14.3721 3.83915C14.4689 4.55268 14.4994 5.27629 14.4619 6.00077C14.36 7.96984 13.7587 9.88058 12.7145 11.5531C11.6703 13.2256 10.2176 14.6048 8.49325 15.561C7.33918 16.2009 6.08882 16.6372 4.7969 16.8557ZM13.4153 1.43086C15.3811 1.88365 17.1855 2.90888 18.5886 4.39763C20.4376 6.35942 21.4418 8.96904 21.3851 11.6642C21.3283 14.3594 20.215 16.9244 18.2851 18.8066C16.3552 20.6888 13.7631 21.7376 11.0674 21.7268C8.94713 21.7267 6.87876 21.0712 5.1454 19.8502C3.93225 18.9956 2.9247 17.8932 2.18441 16.624C1.78698 15.8841 2.33864 15.0185 3.09599 15.0154C4.64609 14.9773 6.16529 14.5649 7.52341 13.8118C8.95094 13.0203 10.1535 11.8785 11.018 10.4939C11.8824 9.10932 12.3802 7.52751 12.4646 5.8974C12.5196 4.83429 12.3976 3.77345 12.1072 2.75731C11.9146 2.01489 12.5638 1.25522 13.4153 1.43086Z" fill="currentColor"/>
</svg>
