<svg width="24" height="24" viewBox="0 0 24 24" fill="none" xmlns="http://www.w3.org/2000/svg">
<path fill-rule="evenodd" clip-rule="evenodd" d="M12 21.375C6.82233 21.375 2.625 17.1777 2.625 12C2.625 6.82233 6.82233 2.625 12 2.625C17.1777 2.625 21.375 6.82233 21.375 12C21.375 17.1777 17.1777 21.375 12 21.375ZM0.75 12C0.75 5.7868 5.7868 0.75 12 0.75C18.2132 0.75 23.25 5.7868 23.25 12C23.25 18.2132 18.2132 23.25 12 23.25C5.7868 23.25 0.75 18.2132 0.75 12ZM11.9911 13.6761C11.3638 13.6761 11.0393 13.3623 11.0174 12.7348L10.8752 7.87488C10.8606 7.55381 10.9591 7.29476 11.1706 7.09774C11.3821 6.89342 11.6519 6.79126 11.9801 6.79126C12.3083 6.79126 12.5818 6.89342 12.8006 7.09774C13.0194 7.30206 13.1215 7.56475 13.107 7.88583L12.9429 12.7238C12.921 13.3587 12.6037 13.6761 11.9911 13.6761ZM11.9911 17.1349C11.6483 17.1349 11.3529 17.0255 11.1049 16.8066C10.8642 16.5877 10.7439 16.3104 10.7439 15.9747C10.7439 15.639 10.8642 15.3617 11.1049 15.1428C11.3456 14.9239 11.641 14.8144 11.9911 14.8144C12.3412 14.8144 12.6365 14.9239 12.8772 15.1428C13.1252 15.3617 13.2492 15.639 13.2492 15.9747C13.2492 16.3177 13.1252 16.5986 12.8772 16.8175C12.6365 17.0291 12.3412 17.1349 11.9911 17.1349Z" fill="#999999"/>
</svg>
